General
Unique ID                                : 255131318457732322973104154553272543730 (0xBFF0812D42C099505F4077F4EDE0A9F2)
Complete name                            : Ado - Kaze no Yukue (Uta from ONE PIECE FILM RED) [WEB-DL 1080p AAC 2.0 x264-SEKAI].mkv
Format                                   : Matroska
Format version                           : Version 4
File size                                : 228 MiB
Duration                                 : 4 min 39 s
Overall bit rate                         : 6 828 kb/s
Frame rate                               : 23.976 FPS
Title                                    : Ado - Kaze no Yukue (Uta from ONE PIECE FILM RED) [WEB-DL 1080p AAC 2.0 x264-SEKAI]
Encoded date                             : 2026-05-01 19:18:18 UTC
Writing application                      : mkvmerge 98.0 ('Chonks') 64-bit
Writing library                          : libebml v1.4.5 + libmatroska v1.7.1
Website                                  : https://sekai-archivist.blogspot.com/

Video
ID                                       : 1
Format                                   : AVC
Format/Info                              : Advanced Video Codec
Format profile                           : High@L4
Format settings                          : CABAC / 5 Ref Frames
Format settings, CABAC                   : Yes
Format settings, Reference frames        : 5 frames
Format settings, Slice count             : 8 slices per frame
Codec ID                                 : V_MPEG4/ISO/AVC
Duration                                 : 4 min 39 s
Bit rate                                 : 6 569 kb/s
Width                                    : 1 440 pixels
Height                                   : 1 080 pixels
Display aspect ratio                     : 4:3
Frame rate mode                          : Constant
Frame rate                               : 23.976 (24000/1001) FPS
Color space                              : YUV
Chroma subsampling                       : 4:2:0 (Type 2)
Bit depth                                : 8 bits
Scan type                                : Progressive
Bits/(Pixel*Frame)                       : 0.176
Stream size                              : 219 MiB (96%)
Language                                 : Japanese
Default                                  : Yes
Forced                                   : No
Color range                              : Limited
Color primaries                          : BT.709
Transfer characteristics                 : BT.709
Matrix coefficients                      : BT.709

Audio
ID                                       : 2
Format                                   : AAC LC
Format/Info                              : Advanced Audio Codec Low Complexity
Codec ID                                 : A_AAC-2
Duration                                 : 4 min 39 s
Bit rate                                 : 258 kb/s
Channel(s)                               : 2 channels
Channel layout                           : L R
Sampling rate                            : 48.0 kHz
Frame rate                               : 46.875 FPS (1024 SPF)
Compression mode                         : Lossy
Stream size                              : 8.61 MiB (4%)
Language                                 : Japanese
Default                                  : Yes
Forced                                   : No


